<svg viewBox="0 0 1024 1024" xmlns="http://www.w3.org/2000/svg"><path fill="currentColor" d="M512 485.888c-38.656-75.136-143.872-215.210667-241.706667-284.245333-93.738667-66.133333-129.450667-54.741333-152.874666-44.074667C90.282667 169.728 85.333333 211.413333 85.333333 235.861333c0 24.533333 13.44 200.917333 22.186667 230.4 29.013333 97.28 132.010667 130.133333 226.986667 119.594667-139.093333 20.608-262.698667 71.253333-100.693334 251.648 178.261333 184.533333 244.309333-39.552 278.186667-153.173333 33.877333 113.621333 72.874667 329.642667 274.944 153.173333 151.722667-153.173333 41.685333-231.04-97.408-251.648 94.933333 10.538667 197.973333-22.314667 226.944-119.594667 8.746667-29.44 22.186667-205.866667 22.186667-230.357333 0-24.533333-4.949333-66.133333-32.085334-78.421333-23.424-10.581333-59.136-22.058667-152.874666 44.074666-97.834667 69.162667-203.093333 209.237333-241.706667 284.330667z" p-id="1648"></path></svg>