<svg viewBox="0 0 1024 1024" xmlns="http://www.w3.org/2000/svg"><path fill="currentColor" d="M853.9 101.5H170.1c-58.4 0-105.9 49.2-105.9 109.7V700c0 60.5 47.5 109.7 105.9 109.7h211.3l110.2 112.9 110.2-112.9H854c58.4 0 105.9-49.2 105.9-109.7V211.2c-0.1-60.5-47.6-109.7-106-109.7zM307 499c-27.6 0-50-22.4-50-50s22.4-50 50-50 50 22.4 50 50-22.4 50-50 50z m205 0c-27.6 0-50-22.4-50-50s22.4-50 50-50 50 22.4 50 50-22.4 50-50 50z m205 0c-27.6 0-50-22.4-50-50s22.4-50 50-50 50 22.4 50 50-22.4 50-50 50z" p-id="3601"></path></svg>