<svg t="1722851254417" class="icon" viewBox="0 0 1024 1024" version="1.1" xmlns="http://www.w3.org/2000/svg" p-id="1828" xmlns:xlink="http://www.w3.org/1999/xlink" width="64" height="64"><path d="M896 224H128c-35.346 0-64-28.654-64-64 0-35.346 28.654-64 64-64h768c35.346 0 64 28.654 64 64 0 35.346-28.654 64-64 64zM128 448h320c35.346 0 64 28.654 64 64s-28.654 64-64 64H128c-35.346 0-64-28.654-64-64s28.654-64 64-64z m814.846 92.346L690.961 697.774A31.85 31.85 0 0 1 672 704c-17.673 0-32-14.327-32-32V352c0-17.673 14.327-32 32-32a31.856 31.856 0 0 1 18.961 6.225l251.885 157.428C953.041 489.005 960 499.687 960 512c0 12.313-6.959 22.995-17.154 28.346zM128 800h768c35.346 0 64 28.654 64 64 0 35.346-28.654 64-64 64H128c-35.346 0-64-28.654-64-64 0-35.346 28.654-64 64-64z" fill="#515151" p-id="1829"></path></svg>