<svg t="1722851296546" class="icon" viewBox="0 0 1024 1024" version="1.1" xmlns="http://www.w3.org/2000/svg" p-id="3922" xmlns:xlink="http://www.w3.org/1999/xlink" width="64" height="64"><path d="M170.666667 469.333333h256a42.666667 42.666667 0 0 0 42.666666-42.666666V170.666667a42.666667 42.666667 0 0 0-42.666666-42.666667H170.666667a42.666667 42.666667 0 0 0-42.666667 42.666667v256a42.666667 42.666667 0 0 0 42.666667 42.666666z m426.666666 0h256a42.666667 42.666667 0 0 0 42.666667-42.666666V170.666667a42.666667 42.666667 0 0 0-42.666667-42.666667h-256a42.666667 42.666667 0 0 0-42.666666 42.666667v256a42.666667 42.666667 0 0 0 42.666666 42.666666zM170.666667 896h256a42.666667 42.666667 0 0 0 42.666666-42.666667v-256a42.666667 42.666667 0 0 0-42.666666-42.666666H170.666667a42.666667 42.666667 0 0 0-42.666667 42.666666v256a42.666667 42.666667 0 0 0 42.666667 42.666667z m554.666666 0c94.122667 0 170.666667-76.544 170.666667-170.666667s-76.544-170.666667-170.666667-170.666666-170.666667 76.544-170.666666 170.666666 76.544 170.666667 170.666666 170.666667z" fill="#515151" p-id="3923"></path></svg>