<svg t="1722851276667" class="icon" viewBox="0 0 1024 1024" version="1.1" xmlns="http://www.w3.org/2000/svg" p-id="2788" xmlns:xlink="http://www.w3.org/1999/xlink" width="64" height="64"><path d="M574.85555 64C327.85555 64 127.85555 264.6 127.85555 512s200 448 447 448c121.2 0 231-48.4 311.6-126.8 10-9.8 12.6-25 6.2-37.4s-20.2-19.4-34-17c-19.6 3.4-39.6 5.2-60.2 5.2-193.8 0-351-157.6-351-352 0-131.6 72-246.2 178.6-306.6 12.2-7 18.4-21 15.4-34.6s-14.6-23.8-28.6-25c-12.6-1-25.2-1.6-38-1.6z" fill="#515151" p-id="2789"></path></svg>